<?xml version="1.0" encoding="utf-8"?>
<svg xmlns="http://www.w3.org/2000/svg" viewBox="0 0 500 324" width="500px" height="324px">
  <defs>
    <linearGradient id="a" x1="369.9" x2="377.7" y1="379.1" y2="479.1" gradientTransform="matrix(1 0 0 -1 -48 672.1)" gradientUnits="userSpaceOnUse">
      <stop offset="0" stop-color="#0096d1"/>
      <stop offset="1"/>
    </linearGradient>
    <linearGradient id="b" x1="173.2" x2="174.3" y1="359" y2="437.8" gradientTransform="matrix(1 0 0 -1 -48 672.1)" gradientUnits="userSpaceOnUse">
      <stop offset="0" stop-color="#0096d1"/>
      <stop offset="1"/>
    </linearGradient>
  </defs>
  <path d="M 0 0 L 500 0 L 500 324 L 0 324 L 0 0 Z" style="fill: rgb(234, 234, 234);"/>
  <g transform="matrix(1, 0, 0, 1, 0.004696, -88.295502)">
    <title>eyes</title>
    <path fill="#010202" d="M287.2 258.9s12.6-22.8 33.7-24c21-1 40.6.5 54.1 18.7l13.5-2.7s-23.7-19.5-40.3-19.5c-16.6 0-50-2.6-55.9 10.9-5.8 13.5-9.7 19.7-9.7 19.7l4.6-3z"/>
    <path fill="url(#a)" d="M346.6 261.9a22.3 22.3 0 10-44.6 0 22.3 22.3 0 0044.6 0"/>
    <path fill="#010202" d="M334.8 261.6a11.3 11.3 0 10-22.6 0 11.3 11.3 0 0022.6 0"/>
    <path fill="#fff" d="M 325.928 254.047 C 324.11 254.453 323.731 256.887 325.17 258.307 C 326.079 259.119 327.216 259.389 328.125 258.916 C 329.943 258.51 330.397 256.076 328.882 254.656 C 328.049 253.845 326.837 253.574 325.928 254.047" style=""/>
    <path fill="#010202" d="M375 253.6v.4c-1.1 4.2-11 37.6-67 31.5 0 0 50.2 9.6 67-31.9z"/>
    <path fill="#010202" d="M375 265.6s-11.7 24.1-51.6 24.6c0 0 32.6 1.5 51.6-24.6z"/>
    <path fill="#010202" d="M 347.8 286.1 C 347.8 286.1 349.6 287.4 350.5 290.5 C 350.5 290.5 349.9 286.1 348.5 285.8 L 347.8 286.1 Z M 351 285.1 C 351.409 286.788 352.357 288.298 353.7 289.4 C 353.7 289.4 353.1 285.1 351.7 284.7 L 351.1 285.1 L 351 285.1 Z M 355.3 283.1 C 355.3 283.1 357.1 284.4 358 287.5 C 358 287.5 357.4 283.1 356 282.7 L 355.3 283.1 L 355.3 283.1 Z M 296.7 236.4 C 296.7 236.4 307.4 224.4 283.8 239.4 C 260.2 254.4 240.8 283.7 257.1 296.2 C 257.1 296.2 233.9 268.7 296.7 236.4 Z M 237.2 216.9 C 237.2 216.9 236.3 230.9 241.3 230.1 C 246.3 229.3 315.3 199.4 350.2 199.4 C 385 199.4 405 201.9 437.4 220.2 C 437.4 220.2 383.4 184.4 364.4 184.4 C 345.2 184.4 248 205.2 237.2 216.9 Z"/>
    <path fill="url(#b)" d="M147 284.4c0-16.2-18-26.3-32.2-18.2a21 21 0 00-10.8 18.2c0 16.2 18 26.3 32.3 18.2a21 21 0 0010.7-18.2"/>
    <path fill="#010202" d="M137.4 284.4a12.5 12.5 0 00-25 0 12.5 12.5 0 0025 0"/>
    <path fill="#fff" d="M 126.499 275.347 C 124.712 276.545 125.606 279.42 127.928 280.618 C 129 281.097 130.162 281.097 130.966 280.538 C 132.752 279.34 131.948 276.465 129.626 275.267 C 128.464 274.788 127.303 274.788 126.499 275.347" style=""/>
    <path fill="#010202" d="M92.8 292.7s-10.3-15.1 5-27c15.1-11.9 40.2-9.7 68.4 14.9 0 0-17.2-31.9-66.4-24.6 0 0-32.2 20.3-7 36.7z"/>
    <path fill="#010202" d="M171.7 271.1s-16.4-12.3-41-15c-24.6-2.7-43.3-.7-52.4 9.3 0 0 35.5-23 93.4 5.8zm-73 30.4s10.2 15.2 49.9 1.2c0 0-39 16.1-50-1.2z"/>
    <path fill="#010202" d="M 130.8 310.6 C 130.8 310.6 108.6 316.4 98.3 306.6 C 98.3 306.6 107.3 314.6 130.7 310.6 L 130.8 310.6 Z"/>
    <path fill="#010202" d="M100.6 308.5l-3.9 2.7s4.5-1.6 4.8-2c.3-.5 0-.8-.9-.7zm4.1 1.6l-4 2.8s4.5-1.6 4.8-2c.3-.5.1-.8-.8-.7zm4.1 1.1l-4 2.8s4.5-1.6 4.8-2c.3-.4.1-.8-.8-.7zm4.2.9l-3 3.5s4-2.5 4-3c.1-.5 0-.9-1-.5zm57.2-65.2s-28.7-26.3-92-24.4c0 0-15 11.8-15.6 15.6-.6 3.8 27.5-15.6 101.4 10.6 0 0 5.6 2.5 6.2-1.8z"/>
    <path fill="#010202" d="M 117.887 311.835 L 114.94 315.298 C 114.94 315.298 118.677 312.554 118.977 312.154 C 119.277 311.654 118.787 311.735 117.887 311.835 Z M 121.796 311.814 L 119.512 315.091 C 119.512 315.091 123.917 312.252 124.217 311.852 C 124.517 311.352 124.031 311.719 123.131 311.819 L 121.796 311.814 Z M 126.659 311.198 L 123.612 316.191 L 126.659 311.198 Z" style="stroke-width: 1;"/>
  </g>
</svg>